<?xml version="1.0" encoding="UTF-8"?>
<svg version="1.1" xmlns="http://www.w3.org/2000/svg" width="383" height="383">
<path d="M0 0 C2.02165285 -0.00299629 4.04330513 -0.0063999 6.06495667 -0.01017761 C11.53228473 -0.01897541 16.99959712 -0.02135399 22.46693158 -0.0219934 C25.891199 -0.02270647 29.31546249 -0.02484568 32.73972893 -0.02749062 C44.71027757 -0.03673113 56.6808151 -0.04082726 68.65136719 -0.04003906 C79.76945161 -0.0394391 90.88748738 -0.04997824 102.0055595 -0.06578273 C111.58305575 -0.07890691 121.16053619 -0.0842209 130.73804134 -0.08358365 C136.44385837 -0.08333003 142.14963215 -0.08610531 147.85544014 -0.0967617 C153.2292883 -0.10652478 158.6030526 -0.10646627 163.97690392 -0.09924507 C165.93506113 -0.09820925 167.89322379 -0.10050152 169.85137177 -0.10660553 C201.12785204 -0.19768729 227.94041715 4.4523905 251.69311523 26.45776367 C266.08231953 41.66818806 273.11546089 60.35279792 275.03631592 80.90953064 C275.12169861 81.82264666 275.20708129 82.73576269 275.29505134 83.6765489 C276.13100612 93.28217708 276.22521748 102.84395982 276.2019043 112.47949219 C276.20462453 114.4107069 276.20819117 116.34192056 276.21252441 118.27313232 C276.22152754 123.44871299 276.21815502 128.62421262 276.21176624 133.79979444 C276.20664356 139.25829081 276.21141481 144.71678101 276.21453857 150.17527771 C276.21815987 159.33447494 276.21342735 168.49363974 276.20385742 177.65283203 C276.1929732 188.19055739 276.19650571 198.72820532 276.20751023 209.2659288 C276.21663188 218.37063011 276.21784478 227.47530833 276.21263289 236.58001274 C276.20954027 241.9928695 276.20902833 247.40569006 276.21570587 252.81854439 C276.22155039 257.91019378 276.21735479 263.00174485 276.20591736 268.09338379 C276.20330843 269.94427771 276.20396987 271.79518013 276.20844269 273.64607048 C276.2701085 301.79296234 274.28638869 330.03866544 254.94311523 352.14526367 C254.42491211 352.80526367 253.90670898 353.46526367 253.37280273 354.14526367 C240.42201531 370.16169642 220.35383502 379.41895035 200.24581146 381.73235703 C188.01247704 382.98992159 175.91557777 383.43381695 163.62475586 383.40405273 C161.69516367 383.406773 159.76557252 383.41033965 157.83598328 383.41467285 C152.66446754 383.42367625 147.49303292 383.42030317 142.32151604 383.41391468 C136.86615685 383.40879141 131.41080384 383.41356347 125.95544434 383.41668701 C116.80044327 383.42030845 107.64547464 383.41557573 98.49047852 383.40600586 C87.96072555 383.39512487 77.43105009 383.39865174 66.901299 383.40965867 C57.80167756 383.41878382 48.70207921 383.41999144 39.60245466 383.41478133 C34.19347841 383.41169019 28.78453838 383.41117248 23.37556458 383.41785431 C18.28637441 383.42370389 13.19728253 383.41949436 8.1081028 383.4080658 C6.25924148 383.40545935 4.41037164 383.40611382 2.5615139 383.41059113 C-28.02739397 383.47774094 -54.90043488 380.56480418 -79.05688477 360.14526367 C-79.72204102 359.58323242 -80.38719727 359.02120117 -81.07250977 358.44213867 C-99.57630659 341.32180329 -106.04935879 317.10190899 -107.16893482 292.70339775 C-107.34652225 286.5980652 -107.32973636 280.49281759 -107.31567383 274.38549805 C-107.31839175 272.37266413 -107.32195713 270.3598312 -107.32629395 268.34700012 C-107.33532506 262.93584768 -107.33191243 257.52477245 -107.32553577 252.11361885 C-107.32042726 246.41660498 -107.32518058 240.71959717 -107.32830811 235.02258301 C-107.33193373 225.4604373 -107.32718565 215.89832262 -107.31762695 206.33618164 C-107.30674514 195.32416914 -107.31027172 184.31223073 -107.32127976 173.30022001 C-107.3303928 163.79901104 -107.33161837 154.2978242 -107.32640243 144.79661226 C-107.32330472 139.14232452 -107.32281224 133.48807145 -107.3294754 127.83378601 C-107.33530703 122.51482917 -107.33114702 117.19596667 -107.31968689 111.87701988 C-107.3170711 109.93982283 -107.31775169 108.00261765 -107.32221222 106.06542397 C-107.38210256 77.38271517 -104.32870366 50.07045787 -84.05688477 28.14526367 C-83.43297852 27.44143555 -82.80907227 26.73760742 -82.16625977 26.01245117 C-60.21013359 2.48803027 -30.27009023 -0.00897821 0 0 Z " fill="#57AECD" transform="translate(107.056884765625,-0.145263671875)"/>
<path d="M0 0 C2.02165285 -0.00299629 4.04330513 -0.0063999 6.06495667 -0.01017761 C11.53228473 -0.01897541 16.99959712 -0.02135399 22.46693158 -0.0219934 C25.891199 -0.02270647 29.31546249 -0.02484568 32.73972893 -0.02749062 C44.71027757 -0.03673113 56.6808151 -0.04082726 68.65136719 -0.04003906 C79.76945161 -0.0394391 90.88748738 -0.04997824 102.0055595 -0.06578273 C111.58305575 -0.07890691 121.16053619 -0.0842209 130.73804134 -0.08358365 C136.44385837 -0.08333003 142.14963215 -0.08610531 147.85544014 -0.0967617 C153.2292883 -0.10652478 158.6030526 -0.10646627 163.97690392 -0.09924507 C165.93506113 -0.09820925 167.89322379 -0.10050152 169.85137177 -0.10660553 C201.12785204 -0.19768729 227.94041715 4.4523905 251.69311523 26.45776367 C266.08231953 41.66818806 273.11546089 60.35279792 275.03631592 80.90953064 C275.12169861 81.82264666 275.20708129 82.73576269 275.29505134 83.6765489 C276.13100612 93.28217708 276.22521748 102.84395982 276.2019043 112.47949219 C276.20462453 114.4107069 276.20819117 116.34192056 276.21252441 118.27313232 C276.22152754 123.44871299 276.21815502 128.62421262 276.21176624 133.79979444 C276.20664356 139.25829081 276.21141481 144.71678101 276.21453857 150.17527771 C276.21815987 159.33447494 276.21342735 168.49363974 276.20385742 177.65283203 C276.1929732 188.19055739 276.19650571 198.72820532 276.20751023 209.2659288 C276.21663188 218.37063011 276.21784478 227.47530833 276.21263289 236.58001274 C276.20954027 241.9928695 276.20902833 247.40569006 276.21570587 252.81854439 C276.22155039 257.91019378 276.21735479 263.00174485 276.20591736 268.09338379 C276.20330843 269.94427771 276.20396987 271.79518013 276.20844269 273.64607048 C276.2701085 301.79296234 274.28638869 330.03866544 254.94311523 352.14526367 C254.42491211 352.80526367 253.90670898 353.46526367 253.37280273 354.14526367 C240.42201531 370.16169642 220.35383502 379.41895035 200.24581146 381.73235703 C188.01247704 382.98992159 175.91557777 383.43381695 163.62475586 383.40405273 C161.69516367 383.406773 159.76557252 383.41033965 157.83598328 383.41467285 C152.66446754 383.42367625 147.49303292 383.42030317 142.32151604 383.41391468 C136.86615685 383.40879141 131.41080384 383.41356347 125.95544434 383.41668701 C116.80044327 383.42030845 107.64547464 383.41557573 98.49047852 383.40600586 C87.96072555 383.39512487 77.43105009 383.39865174 66.901299 383.40965867 C57.80167756 383.41878382 48.70207921 383.41999144 39.60245466 383.41478133 C34.19347841 383.41169019 28.78453838 383.41117248 23.37556458 383.41785431 C18.28637441 383.42370389 13.19728253 383.41949436 8.1081028 383.4080658 C6.25924148 383.40545935 4.41037164 383.40611382 2.5615139 383.41059113 C-28.02739397 383.47774094 -54.90043488 380.56480418 -79.05688477 360.14526367 C-79.72204102 359.58323242 -80.38719727 359.02120117 -81.07250977 358.44213867 C-99.57630659 341.32180329 -106.04935879 317.10190899 -107.16893482 292.70339775 C-107.34652225 286.5980652 -107.32973636 280.49281759 -107.31567383 274.38549805 C-107.31839175 272.37266413 -107.32195713 270.3598312 -107.32629395 268.34700012 C-107.33532506 262.93584768 -107.33191243 257.52477245 -107.32553577 252.11361885 C-107.32042726 246.41660498 -107.32518058 240.71959717 -107.32830811 235.02258301 C-107.33193373 225.4604373 -107.32718565 215.89832262 -107.31762695 206.33618164 C-107.30674514 195.32416914 -107.31027172 184.31223073 -107.32127976 173.30022001 C-107.3303928 163.79901104 -107.33161837 154.2978242 -107.32640243 144.79661226 C-107.32330472 139.14232452 -107.32281224 133.48807145 -107.3294754 127.83378601 C-107.33530703 122.51482917 -107.33114702 117.19596667 -107.31968689 111.87701988 C-107.3170711 109.93982283 -107.31775169 108.00261765 -107.32221222 106.06542397 C-107.38210256 77.38271517 -104.32870366 50.07045787 -84.05688477 28.14526367 C-83.43297852 27.44143555 -82.80907227 26.73760742 -82.16625977 26.01245117 C-60.21013359 2.48803027 -30.27009023 -0.00897821 0 0 Z M-41.05688477 83.14526367 C-49.46863381 92.95122526 -56.17667431 103.67127924 -62.05688477 115.14526367 C-62.58258057 116.15991699 -62.58258057 116.15991699 -63.11889648 117.19506836 C-80.00021413 150.14827209 -85.59972417 189.90010085 -77.05688477 226.14526367 C-76.7668457 227.42820313 -76.7668457 227.42820313 -76.47094727 228.73706055 C-70.80297873 253.24577634 -59.97084331 276.58435629 -44.05688477 296.14526367 C-43.60442383 296.70455566 -43.15196289 297.26384766 -42.68579102 297.84008789 C-20.35336329 325.26388549 9.16875435 344.05495735 43.25561523 353.52026367 C44.11380859 353.7590625 44.97200195 353.99786133 45.85620117 354.24389648 C87.28211218 365.09915038 131.49406364 356.51894763 168.22167969 335.61572266 C174.50450274 331.9275575 180.29103017 327.74357016 185.94311523 323.14526367 C186.50240723 322.69280273 187.06169922 322.2403418 187.63793945 321.77416992 C206.02901447 306.79749311 220.05521815 289.20080583 230.94311523 268.14526367 C231.42240479 267.22559814 231.42240479 267.22559814 231.91137695 266.28735352 C240.54578994 249.48342276 244.89179052 231.69938661 247.94311523 213.14526367 C248.23702148 211.51137695 248.23702148 211.51137695 248.53686523 209.84448242 C252.85311576 170.54170117 242.91352575 126.96893502 218.94311523 95.14526367 C218.37206055 94.36666992 217.80100586 93.58807617 217.21264648 92.78588867 C212.80167406 86.93150879 207.95658215 81.48735723 202.94311523 76.14526367 C202.23541992 75.38656982 202.23541992 75.38656982 201.51342773 74.61254883 C173.01015537 44.29090061 132.6168262 26.43892909 91.08374023 24.79760742 C38.92660446 23.67515455 -6.2683154 44.64311087 -41.05688477 83.14526367 Z " fill="#DFE0DF" transform="translate(107.056884765625,-0.145263671875)"/>
<path d="M0 0 C19.18586999 16.72778905 32.99776001 41.71336891 34.75 67.3125 C36.26390271 94.73528915 29.97767818 122.51984839 11.34594727 143.52612305 C8.88355143 146.19394723 6.34195631 148.77088979 3.75 151.3125 C2.89148438 152.158125 2.03296875 153.00375 1.1484375 153.875 C-4.51192147 159.19394049 -10.52358153 163.44480938 -17.25 167.3125 C-18.11625 167.82554687 -18.9825 168.33859375 -19.875 168.8671875 C-32.04198996 175.53829279 -47.3162722 180.19781911 -61.25 180.3125 C-62.62632465 180.36134731 -64.00262468 180.4108909 -65.37890625 180.4609375 C-94.19876496 181.24611868 -119.54446426 170.17932031 -140.32324219 150.68798828 C-157.76032869 133.78406838 -169.73823164 108.97057793 -170.55078125 84.55078125 C-170.56989369 82.57560944 -170.57343422 80.60023402 -170.5625 78.625 C-170.55831055 77.57989258 -170.55412109 76.53478516 -170.54980469 75.45800781 C-170.42393772 66.75711899 -169.44932539 58.73848688 -167.25 50.3125 C-166.98316406 49.28511719 -166.71632813 48.25773437 -166.44140625 47.19921875 C-162.44130727 33.77666441 -154.99888616 22.1124071 -146.25 11.3125 C-145.71117187 10.60867187 -145.17234375 9.90484375 -144.6171875 9.1796875 C-132.4190237 -5.96074697 -113.56609947 -16.12222362 -95.25 -21.6875 C-94.11304688 -22.03748047 -94.11304688 -22.03748047 -92.953125 -22.39453125 C-60.91555766 -31.30097497 -24.97900424 -20.87235045 0 0 Z " fill="#1F323C" transform="translate(259.25,113.6875)"/>
<path d="M0 0 C2.095074 1.67399731 4.13922017 3.39224466 6.1875 5.125 C7.18136719 5.94355469 8.17523438 6.76210937 9.19921875 7.60546875 C32.25624211 27.52794253 46.41440617 56.03383484 50.1875 86.125 C50.46686068 90.35904992 50.5219797 94.57009917 50.5 98.8125 C50.49262817 100.5147876 50.49262817 100.5147876 50.48510742 102.25146484 C50.35694872 111.51175254 49.43151952 120.14892191 47.1875 129.125 C47.02652832 129.77017578 46.86555664 130.41535156 46.69970703 131.08007812 C40.70557651 154.27350536 28.60573209 173.03977723 12.1875 190.125 C11.3521875 191.07246094 11.3521875 191.07246094 10.5 192.0390625 C-3.85403894 207.81355321 -26.39228902 217.46366181 -46.8125 222.125 C-47.60462891 222.30901367 -48.39675781 222.49302734 -49.21289062 222.68261719 C-57.21980277 224.34998085 -65.15710603 224.52369919 -73.3125 224.5 C-74.01737549 224.49945618 -74.72225098 224.49891235 -75.44848633 224.49835205 C-86.95269402 224.457624 -97.78625748 223.58229132 -108.8125 220.125 C-109.49086914 219.91601074 -110.16923828 219.70702148 -110.86816406 219.49169922 C-142.68186457 209.35535311 -168.3473869 187.56615993 -184.11083984 158.22558594 C-199.80129514 127.6605488 -202.26757507 92.75890503 -191.8125 60.125 C-189.88457969 54.57817769 -187.52188498 49.32971994 -184.8125 44.125 C-184.51118164 43.53219238 -184.20986328 42.93938477 -183.89941406 42.32861328 C-169.28777844 13.93256162 -143.56553184 -7.84406212 -113.36083984 -18.06396484 C-75.1765028 -30.21651971 -32.19167806 -24.65167815 0 0 Z M-95.8125 0.125 C-96.91335937 0.36992188 -98.01421875 0.61484375 -99.1484375 0.8671875 C-126.47545402 7.80640743 -148.44926684 26.02302151 -163.0703125 49.71875 C-175.83187363 71.47869563 -179.87297764 99.80544123 -173.9765625 124.35546875 C-168.26976601 142.83553121 -160.36618978 158.18057321 -146.8125 172.125 C-146.18988281 172.80949219 -145.56726563 173.49398437 -144.92578125 174.19921875 C-129.54082444 190.61629006 -105.33420235 202.02503877 -82.82202148 203.23168945 C-51.32896448 204.14924689 -24.10124391 195.48971233 -1.09741211 173.80810547 C13.30405828 159.77543367 22.00550587 142.37529851 27.1875 123.125 C27.55875 121.79662109 27.55875 121.79662109 27.9375 120.44140625 C33.75326638 95.19936467 27.2723702 68.1349731 14.265625 46.31640625 C11.21565408 41.63252233 7.81561909 37.36805453 4.1875 33.125 C3.7440625 32.5371875 3.300625 31.949375 2.84375 31.34375 C-11.34631079 13.00050069 -37.11944111 1.31922963 -59.67675781 -1.66845703 C-71.64224141 -2.82561285 -84.07595952 -2.51344708 -95.8125 0.125 Z " fill="#1E323C" transform="translate(264.8125,90.875)"/>
<path d="M0 0 C19.18586999 16.72778905 32.99776001 41.71336891 34.75 67.3125 C36.26390271 94.73528915 29.97767818 122.51984839 11.34594727 143.52612305 C8.88355143 146.19394723 6.34195631 148.77088979 3.75 151.3125 C2.89148438 152.158125 2.03296875 153.00375 1.1484375 153.875 C-4.51192147 159.19394049 -10.52358153 163.44480938 -17.25 167.3125 C-18.11625 167.82554687 -18.9825 168.33859375 -19.875 168.8671875 C-32.04198996 175.53829279 -47.3162722 180.19781911 -61.25 180.3125 C-62.62632465 180.36134731 -64.00262468 180.4108909 -65.37890625 180.4609375 C-94.19876496 181.24611868 -119.54446426 170.17932031 -140.32324219 150.68798828 C-157.76032869 133.78406838 -169.73823164 108.97057793 -170.55078125 84.55078125 C-170.56989369 82.57560944 -170.57343422 80.60023402 -170.5625 78.625 C-170.55831055 77.57989258 -170.55412109 76.53478516 -170.54980469 75.45800781 C-170.42393772 66.75711899 -169.44932539 58.73848688 -167.25 50.3125 C-166.98316406 49.28511719 -166.71632813 48.25773437 -166.44140625 47.19921875 C-162.44130727 33.77666441 -154.99888616 22.1124071 -146.25 11.3125 C-145.71117187 10.60867187 -145.17234375 9.90484375 -144.6171875 9.1796875 C-132.4190237 -5.96074697 -113.56609947 -16.12222362 -95.25 -21.6875 C-94.11304688 -22.03748047 -94.11304688 -22.03748047 -92.953125 -22.39453125 C-60.91555766 -31.30097497 -24.97900424 -20.87235045 0 0 Z M-126.25 27.3125 C-141.83125092 45.87491702 -145.96971817 66.10581155 -143.96875 89.6171875 C-140.79433232 110.18985595 -129.57202336 127.36255884 -113.5 140.125 C-99.83283318 149.87967476 -84.81999246 154.91653033 -68 154.8125 C-66.36647583 154.80391968 -66.36647583 154.80391968 -64.69995117 154.79516602 C-55.37845228 154.59019932 -47.81549671 153.01953464 -39.25 149.3125 C-38.32888428 148.91901367 -38.32888428 148.91901367 -37.38916016 148.51757812 C-29.09937252 144.90635697 -21.97915817 140.36145446 -15.25 134.3125 C-14.63898438 133.79429687 -14.02796875 133.27609375 -13.3984375 132.7421875 C-4.38936988 124.55586578 1.84161127 112.68514486 5.75 101.3125 C6.06839844 100.41789062 6.38679687 99.52328125 6.71484375 98.6015625 C12.46657182 79.67652176 8.68082682 58.69303907 0.2890625 41.28125 C-9.80455993 22.57112062 -26.74998736 10.32708541 -46.46484375 3.140625 C-75.33038858 -4.73517359 -106.32021627 5.60376766 -126.25 27.3125 Z " fill="#E3F7FD" transform="translate(259.25,113.6875)"/>
<path d="M0 0 C9.08763164 8.32488078 15.78719469 20.46634091 16.4375 32.80859375 C16.54461652 39.56362938 16.60118003 45.87706465 14.25 52.25 C13.78980469 53.63251953 13.78980469 53.63251953 13.3203125 55.04296875 C8.87896892 67.12648628 -0.21055724 77.05116799 -11.80859375 82.75390625 C-24.92972046 88.39101209 -38.14153017 89.04499579 -51.75 84.25 C-64.37368489 78.99871183 -74.26310592 68.42045488 -79.5625 56 C-84.22350908 44.35501937 -84.47791595 30.99010589 -79.75 19.25 C-73.69511111 6.12214357 -65.0660694 -2.80782732 -51.86328125 -8.97265625 C-34.06725733 -15.51869832 -14.69246476 -11.55109145 0 0 Z " fill="#E3F7FD" transform="translate(224.75,153.75)"/>
<path d="M0 0 C6.22127804 3.53072532 10.39679004 8.10299052 12.625 14.9375 C13.54016245 22.37439907 13.25548992 28.69947888 9.11328125 35.0703125 C6.83249944 37.93176579 4.64967768 39.83874406 1.625 41.9375 C0.779375 42.535625 -0.06625 43.13375 -0.9375 43.75 C-7.53541528 46.02927982 -15.34516644 46.26598533 -21.8125 43.375 C-25.85265381 40.96284066 -28.6716339 37.74410896 -31.375 33.9375 C-31.99375 33.07125 -32.6125 32.205 -33.25 31.3125 C-35.43419554 24.75991339 -35.69626766 16.9824513 -32.875 10.5625 C-25.83454128 -1.26346625 -12.63099834 -5.8091127 0 0 Z " fill="#1F333D" transform="translate(202.375,170.0625)"/>
<path d="M0 0 C0.99 0.495 0.99 0.495 2 1 C2.49180314 3.89617404 2.85176805 6.706131 3.125 9.625 C3.20991699 10.47425049 3.29483398 11.32350098 3.38232422 12.19848633 C4.09076211 19.81811359 4.20575658 27.35271368 4 35 C4.66 35 5.32 35 6 35 C5.71682059 38.04267238 5.42376386 41.08385141 5.125 44.125 C5.04636719 44.9809375 4.96773437 45.836875 4.88671875 46.71875 C4.41718595 51.41407802 3.71605178 55.56518383 2 60 C1.01380093 62.84257379 0.08138335 65.53495229 -0.4375 68.5 C-1.13885339 71.61712619 -2.5755139 74.15102779 -4 77 C-4 77.99 -4 78.98 -4 80 C-5.04774448 82.36244852 -6.13504795 84.64182387 -7.3125 86.9375 C-7.62123047 87.55818359 -7.92996094 88.17886719 -8.24804688 88.81835938 C-9.92505271 92.13353512 -11.7721529 95.04347369 -14 98 C-14.47179687 98.97453125 -14.94359375 99.9490625 -15.4296875 100.953125 C-17.0311523 104.06044475 -18.74354186 106.20636371 -21.125 108.75 C-24.67923938 112.57007442 -24.67923938 112.57007442 -28.1328125 116.48046875 C-32.32411427 121.34454405 -36.74947066 125.71263906 -41.625 129.875 C-42.15125977 130.32738037 -42.67751953 130.77976074 -43.21972656 131.24584961 C-46.9316391 134.34161239 -50.7642844 136.67306216 -55 139 C-57.04993377 140.29561402 -59.07956983 141.6164991 -61.10546875 142.94921875 C-63.07794299 144.04323024 -64.81910582 144.47090733 -67 145 C-68.18907313 145.62582796 -69.35704789 146.29344779 -70.5 147 C-73.02540165 148.48741877 -75.10021508 149.45629033 -78 150 C-81.12070269 150.87379675 -84.23106225 151.75962618 -87.32421875 152.7265625 C-96.43469927 155.55839161 -105.17898354 157.1779697 -114.7109375 157.76953125 C-116.82513724 157.91767589 -118.93663212 158.11918583 -121.0390625 158.38671875 C-128.93108686 159.35500142 -135.38104478 158.11526257 -143 156 C-144.41580352 155.66301937 -145.83234365 155.3290988 -147.25 155 C-157.42857143 152.28571429 -157.42857143 152.28571429 -162 150 C-162.495 150.99 -162.495 150.99 -163 152 C-163.5878125 151.071875 -163.5878125 151.071875 -164.1875 150.125 C-166.27717491 147.67503632 -167.97463327 146.98120002 -171 146 C-171 145.34 -171 144.68 -171 144 C-165.60772366 144.8567168 -160.39231848 145.75102902 -155.25 147.625 C-152.35268911 148.66085274 -150.72623951 149 -147.5625 149 C-143.35167882 149 -140.08919024 150.07952863 -136.13671875 151.44140625 C-133.96866723 152.25887383 -133.96866723 152.25887383 -132 151 C-130.1875 150.99414062 -130.1875 150.99414062 -128 151.15625 C-127.19941162 151.20974609 -126.39882324 151.26324219 -125.57397461 151.31835938 C-124.29985718 151.40827148 -124.29985718 151.40827148 -123 151.5 C-116.16767509 151.93571049 -109.80660154 151.86433035 -103 151 C-102.34 151.33 -101.68 151.66 -101 152 C-101 151.34 -101 150.68 -101 150 C-100.21496094 149.89042969 -99.42992187 149.78085937 -98.62109375 149.66796875 C-90.89398964 148.5017923 -85.06418451 146.8063606 -78.3125 142.875 C-75.57942585 141.3279769 -73.94862385 140.64501147 -71 140 C-66.06511985 138.19687071 -62.32577562 135.94771904 -58.20703125 132.703125 C-56.69927711 131.53961915 -55.15177726 130.42632278 -53.57421875 129.359375 C-47.43573638 125.17611294 -42.1944693 120.48557137 -36.9375 115.25 C-36.28193115 114.59974854 -35.6263623 113.94949707 -34.95092773 113.27954102 C-31.44512434 109.72130923 -29.2027708 106.67839237 -27.15625 102.12109375 C-25.89962202 99.81586067 -24.37718109 97.8145699 -22.77612305 95.73925781 C-11.79205106 81.30677141 -4.87773834 64.63500797 -1 47 C-0.75636719 45.9790625 -0.51273438 44.958125 -0.26171875 43.90625 C2.48628389 29.99799172 2.13149548 13.9996623 0 0 Z " fill="#3878B1" transform="translate(313,169)"/>
<path d="M0 0 C-3.36403335 3.71814212 -7.09630914 5.99041659 -12 7 C-15.12070269 7.87379675 -18.23106225 8.75962618 -21.32421875 9.7265625 C-30.43469927 12.55839161 -39.17898354 14.1779697 -48.7109375 14.76953125 C-50.82513724 14.91767589 -52.93663212 15.11918583 -55.0390625 15.38671875 C-62.93108686 16.35500142 -69.38104478 15.11526257 -77 13 C-78.41580352 12.66301937 -79.83234365 12.3290988 -81.25 12 C-91.42857143 9.28571429 -91.42857143 9.28571429 -96 7 C-96.33 7.66 -96.66 8.32 -97 9 C-97.391875 8.38125 -97.78375 7.7625 -98.1875 7.125 C-100.27717491 4.67503632 -101.97463327 3.98120002 -105 3 C-105 2.34 -105 1.68 -105 1 C-99.60772366 1.8567168 -94.39231848 2.75102902 -89.25 4.625 C-86.35268911 5.66085274 -84.72623951 6 -81.5625 6 C-77.35167882 6 -74.08919024 7.07952863 -70.13671875 8.44140625 C-67.96866723 9.25887383 -67.96866723 9.25887383 -66 8 C-64.1875 7.99414062 -64.1875 7.99414062 -62 8.15625 C-61.20062012 8.20998779 -60.40124023 8.26372559 -59.57763672 8.3190918 C-58.7270166 8.3787915 -57.87639648 8.43849121 -57 8.5 C-48.30140975 9.02676943 -48.30140975 9.02676943 -39.62890625 8.3671875 C-37.4793328 8.0669499 -35.31601022 7.86664853 -33.15234375 7.6953125 C-24.004491 6.92863332 -16.53498286 5.05854021 -8.171875 1.2421875 C-5.13771936 0.05393443 -3.20927985 -0.27749412 0 0 Z " fill="#4187B3" transform="translate(247,312)"/>
<path d="M0 0 C0.99 0 1.98 0 3 0 C2.39038737 4.14536586 0.86281237 7.27437525 -1 11 C-1 11.99 -1 12.98 -1 14 C-2.04774448 16.36244852 -3.13504795 18.64182387 -4.3125 20.9375 C-4.62123047 21.55818359 -4.92996094 22.17886719 -5.24804688 22.81835938 C-6.92505271 26.13353512 -8.7721529 29.04347369 -11 32 C-11.47179687 32.97453125 -11.94359375 33.9490625 -12.4296875 34.953125 C-14.0311523 38.06044475 -15.74354186 40.20636371 -18.125 42.75 C-21.67923938 46.57007442 -21.67923938 46.57007442 -25.1328125 50.48046875 C-29.32411427 55.34454405 -33.74947066 59.71263906 -38.625 63.875 C-39.15125977 64.32738037 -39.67751953 64.77976074 -40.21972656 65.24584961 C-43.93185488 68.34179235 -47.76732542 70.66760971 -52 73 C-54.08367628 74.35998334 -56.14752851 75.74261444 -58.203125 77.14453125 C-60 78 -60 78 -63 77 C-60.66504547 74.41405687 -58.23339531 72.91565089 -55.1875 71.25 C-51.02880501 68.82459612 -48.40414976 66.40783302 -45.48046875 62.640625 C-43.85040989 60.83422731 -42.30607814 59.86957504 -40.1875 58.6875 C-35.57402541 56.02723975 -32.47454025 52.35074764 -29.02734375 48.34375 C-27 46 -27 46 -24.375 43.5 C-20.74858281 39.68271875 -17.94916775 35.34888312 -15 31 C-14.44699219 30.24203125 -13.89398438 29.4840625 -13.32421875 28.703125 C-10.01576856 24.07293664 -8.15926242 19.92140966 -6.71484375 14.42578125 C-5.61636598 10.69815998 -3.83735057 7.40690916 -2 4 C-1.32959852 2.66854062 -0.66195527 1.33567864 0 0 Z " fill="#438FD4" transform="translate(310,235)"/>
<path d="M0 0 C-3.36403335 3.71814212 -7.09630914 5.99041659 -12 7 C-15.12070269 7.87379675 -18.23106225 8.75962618 -21.32421875 9.7265625 C-30.43469927 12.55839161 -39.17898354 14.1779697 -48.7109375 14.76953125 C-50.82513724 14.91767589 -52.93663212 15.11918583 -55.0390625 15.38671875 C-65.02974416 16.6124884 -73.58308851 14.21861602 -83 11 C-79.73298642 9.91099547 -77.99448306 10.06482617 -74.60546875 10.42578125 C-68.16153938 11.02726632 -61.78199874 11.19139084 -55.3125 11.1875 C-53.62761475 11.1884668 -53.62761475 11.1884668 -51.90869141 11.18945312 C-42.82219679 11.13224812 -33.97194592 10.3995236 -25 9 C-25 8.34 -25 7.68 -25 7 C-24.09121094 6.74476563 -24.09121094 6.74476563 -23.1640625 6.484375 C-17.70805844 4.90633075 -12.52169783 3.06329474 -7.32421875 0.76953125 C-4.75904647 -0.07977789 -2.68442118 -0.13778445 0 0 Z " fill="#4794C8" transform="translate(247,312)"/>
<path d="M0 0 C0.66 0.33 1.32 0.66 2 1 C2.49180314 3.89617404 2.85176805 6.706131 3.125 9.625 C3.20991699 10.47425049 3.29483398 11.32350098 3.38232422 12.19848633 C4.09076211 19.81811359 4.20575658 27.35271368 4 35 C4.66 35 5.32 35 6 35 C5.71682059 38.04267238 5.42376386 41.08385141 5.125 44.125 C5.04636719 44.9809375 4.96773438 45.836875 4.88671875 46.71875 C4.41728289 51.41310865 3.71911493 55.56684929 2 60 C1.67 60.928125 1.34 61.85625 1 62.8125 C0 65 0 65 -2 66 C-2.30947323 58.12562551 -2.14980853 50.91560023 -0.5 43.1875 C2.3688128 29.29101703 2.10507636 14.00554834 0 0 Z " fill="#3F86C4" transform="translate(313,169)"/>
<path d="M0 0 C0.66 0.33 1.32 0.66 2 1 C-6.09040973 7.30421537 -13.06822804 11.20297409 -22.9453125 14.05859375 C-26.11661249 14.95275492 -26.11661249 14.95275492 -29.375 16.625 C-35.33291086 18.88489722 -41.69432278 19.31018975 -48 20 C-48 19.34 -48 18.68 -48 18 C-47.21496094 17.89042969 -46.42992187 17.78085937 -45.62109375 17.66796875 C-37.89398964 16.5017923 -32.06418451 14.8063606 -25.3125 10.875 C-22.57942585 9.3279769 -20.94862385 8.64501147 -18 8 C-14.67266869 6.64190559 -11.41803363 5.19862371 -8.171875 3.65625 C-7.18703125 3.1921875 -6.2021875 2.728125 -5.1875 2.25 C-4.25292969 1.80140625 -3.31835938 1.3528125 -2.35546875 0.890625 C-1.57816406 0.59671875 -0.80085938 0.3028125 0 0 Z " fill="#3C7EB1" transform="translate(260,301)"/>
<path d="M0 0 C0.33 0 0.66 0 1 0 C0.77150948 6.28348933 -0.77526095 9.6773194 -4.43359375 14.74609375 C-6.69285577 17.99695207 -8.31017129 21.42536234 -10 25 C-10.66 25 -11.32 25 -12 25 C-12.33 25.99 -12.66 26.98 -13 28 C-15.0625 29.1875 -15.0625 29.1875 -17 30 C-15.77115928 24.74474502 -14.2093778 21.509506 -10.75 17.25 C-6.48010482 11.78674154 -3.10617213 6.18798212 0 0 Z " fill="#3570A7" transform="translate(301,247)"/>
<path d="M0 0 C0.33 0 0.66 0 1 0 C1.06469482 0.5576001 1.12938965 1.1152002 1.19604492 1.68969727 C2.49366948 12.53293766 4.04101816 22.60254541 8.109375 32.7734375 C9.14997315 36.54332378 8.78829829 39.20270944 8 43 C7.34 43 6.68 43 6 43 C5.67 41.02 5.34 39.04 5 37 C4.67 37 4.34 37 4 37 C3.79503906 35.79601562 3.59007813 34.59203125 3.37890625 33.3515625 C3.10693641 31.77601308 2.83479193 30.20049379 2.5625 28.625 C2.42779297 27.8309375 2.29308594 27.036875 2.15429688 26.21875 C1.48582411 21.98605017 1.48582411 21.98605017 0 18 C-0.08308638 16.62451844 -0.10736016 15.24514204 -0.09765625 13.8671875 C-0.09443359 13.06152344 -0.09121094 12.25585938 -0.08789062 11.42578125 C-0.07951172 10.58402344 -0.07113281 9.74226562 -0.0625 8.875 C-0.05798828 8.02550781 -0.05347656 7.17601562 -0.04882812 6.30078125 C-0.03702874 4.20049091 -0.01909306 2.1002367 0 0 Z " fill="#4C9495" transform="translate(67,200)"/>
<path d="M0 0 C10.40764746 1.65355147 19.46238978 4.55813425 29 9 C21.2372628 11.07118585 15.97050066 9.54057176 9 6 C8.67 6.66 8.34 7.32 8 8 C7.608125 7.38125 7.21625 6.7625 6.8125 6.125 C4.72282509 3.67503632 3.02536673 2.98120002 0 2 C0 1.34 0 0.68 0 0 Z " fill="#468FB0" transform="translate(142,313)"/>
<path d="M0 0 C0.33 0.99 0.66 1.98 1 3 C-0.25 4.875 -0.25 4.875 -2 7 C-2.45375 7.804375 -2.9075 8.60875 -3.375 9.4375 C-7.07268171 15.26845962 -12.80885372 19.53020407 -18 24 C-18.66 23.67 -19.32 23.34 -20 23 C-18.9375 21.9375 -17.875 20.875 -16.8125 19.8125 C-15.84570312 18.83990234 -15.84570312 18.83990234 -14.859375 17.84765625 C-13.45547547 16.45260482 -12.0167988 15.09242966 -10.5625 13.75 C-6.6015388 9.49921237 -3.34634579 4.74134851 0 0 Z M-23 25 C-22.34 25.33 -21.68 25.66 -21 26 C-23.64 27.98 -26.28 29.96 -29 32 C-29.66 31.67 -30.32 31.34 -31 31 C-25.25 26.125 -25.25 26.125 -23 25 Z " fill="#3F86C7" transform="translate(293,269)"/>
<path d="M0 0 C0.99 0 1.98 0 3 0 C2.71682059 3.04267238 2.42376386 6.08385141 2.125 9.125 C2.04636719 9.9809375 1.96773438 10.836875 1.88671875 11.71875 C1.41728289 16.41310865 0.71911493 20.56684929 -1 25 C-1.33 25.928125 -1.66 26.85625 -2 27.8125 C-3 30 -3 30 -5 31 C-5 27.37 -5 23.74 -5 20 C-4.34 19.67 -3.68 19.34 -3 19 C-0.89523023 12.96082399 -0.50234528 6.33219446 0 0 Z " fill="#3F87CA" transform="translate(316,204)"/>
<path d="M0 0 C0.99 0 1.98 0 3 0 C2.38624579 4.17352864 0.89800151 7.25266369 -1 11 C-1.5798383 12.27421666 -2.1525057 13.55171568 -2.71875 14.83203125 C-3.01136719 15.48494141 -3.30398438 16.13785156 -3.60546875 16.81054688 C-4.20910636 18.16148258 -4.80530334 19.51576425 -5.39453125 20.87304688 C-6.18503697 22.6194725 -7.08582599 24.31501109 -8 26 C-8.99 26.33 -9.98 26.66 -11 27 C-9.25228334 21.53373726 -7.33357994 16.25055486 -5 11 C-4.47789792 9.77137171 -3.95705752 8.54220649 -3.4375 7.3125 C-2.35852182 4.82615897 -1.24946464 2.40281661 0 0 Z " fill="#3F87CB" transform="translate(310,235)"/>
<path d="M0 0 C0.66 0.33 1.32 0.66 2 1 C-1.38976134 5.69441176 -4.79470144 9.99495375 -9 14 C-9.66644531 14.68707031 -10.33289063 15.37414062 -11.01953125 16.08203125 C-11.73496094 16.81808594 -12.45039063 17.55414063 -13.1875 18.3125 C-13.86167969 19.00988281 -14.53585937 19.70726562 -15.23046875 20.42578125 C-17 22 -17 22 -19 22 C-17.4055028 18.041568 -14.79102874 15.62466847 -11.75 12.6875 C-7.59468399 8.63013219 -3.68935187 4.48704957 0 0 Z " fill="#3A7CB8" transform="translate(289,272)"/>
<path d="M0 0 C0.66 0.33 1.32 0.66 2 1 C-2.79531105 4.73660601 -7.50636551 8.35882957 -13 11 C-15.203125 10.59765625 -15.203125 10.59765625 -17 10 C-4.35151631 1.78523746 -4.35151631 1.78523746 0 0 Z " fill="#3E83BC" transform="translate(260,301)"/>
<path d="M0 0 C0.99 0 1.98 0 3 0 C2.75101118 3.10632548 2.47205823 6.20924688 2.1875 9.3125 C2.11724609 10.19357422 2.04699219 11.07464844 1.97460938 11.98242188 C1.89404297 12.82998047 1.81347656 13.67753906 1.73046875 14.55078125 C1.66239014 15.33106689 1.59431152 16.11135254 1.52416992 16.9152832 C1 19 1 19 -2 22 C-1.34 14.74 -0.68 7.48 0 0 Z " fill="#4491D8" transform="translate(316,204)"/>
<path d="M0 0 C0.33 0 0.66 0 1 0 C1 7.26 1 14.52 1 22 C0.67 22 0.34 22 0 22 C-2.20667471 14.44988983 -2.51049607 7.5314882 0 0 Z " fill="#5AAEA9" transform="translate(66,186)"/>
<path d="M0 0 C2.97 0.33 5.94 0.66 9 1 C9 1.66 9 2.32 9 3 C11.97 3.495 11.97 3.495 15 4 C14.67 4.66 14.34 5.32 14 6 C12.5410574 5.52269162 11.08286504 5.04308958 9.625 4.5625 C8.81289062 4.29566406 8.00078125 4.02882813 7.1640625 3.75390625 C5 3 5 3 3 2 C2.67 2.66 2.34 3.32 2 4 C1.34 2.68 0.68 1.36 0 0 Z " fill="#4B99BE" transform="translate(148,317)"/>
<path d="M0 0 C0.75 1.5625 0.75 1.5625 1 4 C-0.13084437 6.50286409 -1.52139516 8.67007722 -3 11 C-3.75 9.4375 -3.75 9.4375 -4 7 C-2.86915563 4.49713591 -1.47860484 2.32992278 0 0 Z " fill="#3B7FBE" transform="translate(310,231)"/>
<path d="M0 0 C2.66666667 1.33333333 5.33333333 2.66666667 8 4 C8 4.66 8 5.32 8 6 C5.69 5.34 3.38 4.68 1 4 C0.67 2.68 0.34 1.36 0 0 Z " fill="#4E9CAE" transform="translate(104,289)"/>
<path d="M0 0 C0.99 0 1.98 0 3 0 C2.50168276 3.68754757 1.89932357 5.60490662 -1 8 C-0.67 5.36 -0.34 2.72 0 0 Z " fill="#428ED5" transform="translate(310,235)"/>
<path d="M0 0 C0 3.23861295 -0.6250851 5.09740189 -2 8 C-2.99 8.495 -2.99 8.495 -4 9 C-3.6875 5.625 -3.6875 5.625 -3 2 C-2.01 1.34 -1.02 0.68 0 0 Z " fill="#428DD4" transform="translate(315,226)"/>
<path d="M0 0 C6.625 0.75 6.625 0.75 10 3 C2.25 3.125 2.25 3.125 0 2 C0 1.34 0 0.68 0 0 Z " fill="#4185A8" transform="translate(164,318)"/>
</svg>
