<?xml version="1.0" encoding="UTF-8"?>
<svg version="1.1" xmlns="http://www.w3.org/2000/svg" width="1080" height="1080">
<path d="M0 0 C1.14100159 -0.00701431 2.28200317 -0.01402863 3.45758057 -0.02125549 C7.12019856 -0.03865758 10.78265468 -0.04510809 14.4453125 -0.046875 C15.69874451 -0.04754974 16.95217651 -0.04822449 18.24359131 -0.04891968 C37.21020129 -0.03270009 55.77625385 0.46015047 74.5703125 3.203125 C76.39344971 3.46053467 76.39344971 3.46053467 78.25341797 3.72314453 C147.95880596 13.79420059 214.62200915 39.05772945 272.5703125 79.203125 C273.15474121 79.60740723 273.73916992 80.01168945 274.34130859 80.42822266 C292.09726073 92.7727438 308.65884018 106.57085426 324.5703125 121.203125 C325.18729004 121.76966797 325.80426758 122.33621094 326.43994141 122.91992188 C328.55100445 124.86304236 330.65521453 126.81335004 332.7578125 128.765625 C333.42345215 129.37897705 334.0890918 129.9923291 334.77490234 130.62426758 C338.76853109 134.35221722 342.45063311 138.22345206 345.98413086 142.39111328 C347.56200009 144.19362912 349.21706632 145.85794644 350.9453125 147.515625 C355.06357664 151.57922192 358.62810957 156.04621524 362.24121094 160.55761719 C363.67232766 162.32942591 365.12340027 164.08346746 366.578125 165.8359375 C387.35211577 190.94114828 404.7759953 218.17959732 419.5703125 247.203125 C420.35897705 248.7495166 420.35897705 248.7495166 421.16357422 250.32714844 C437.47041966 282.61398742 449.76274588 316.8785813 457.5703125 352.203125 C457.95098877 353.92378174 457.95098877 353.92378174 458.33935547 355.67919922 C464.34457851 383.40275517 468.09179662 411.81668283 468.5703125 440.203125 C468.59077637 441.11336426 468.61124023 442.02360352 468.63232422 442.96142578 C470.52869416 536.10296774 443.92208211 630.50120426 390.5703125 707.203125 C390.07144531 707.92725586 389.57257812 708.65138672 389.05859375 709.39746094 C378.72891552 724.38080526 367.59983115 738.54920851 355.5703125 752.203125 C354.94914551 752.91331787 354.32797852 753.62351074 353.68798828 754.35522461 C347.54540982 761.29023394 341.08154292 767.87807072 334.53271484 774.42602539 C332.69988981 776.26104222 330.8752424 778.1039375 329.05078125 779.94726562 C322.19728879 786.83317079 315.21352397 793.19231056 307.5703125 799.203125 C306.51948605 800.07836617 305.47281178 800.95866288 304.43359375 801.84765625 C289.96102813 814.14822887 274.49254838 824.87174991 258.5703125 835.203125 C257.96123047 835.59983398 257.35214844 835.99654297 256.72460938 836.40527344 C175.63260628 888.87367155 75.36730634 911.95958195 -77.4296875 896.203125 C-79.11288086 895.85024414 -79.11288086 895.85024414 -80.83007812 895.49023438 C-119.90663199 887.12771946 -156.72995752 873.0014446 -192.4296875 855.203125 C-193.28933105 854.77531738 -194.14897461 854.34750977 -195.03466797 853.90673828 C-219.85861189 841.45277557 -243.43360901 826.16399169 -264.85595703 808.49316406 C-267.02159089 806.71792216 -269.22697355 804.99452035 -271.4296875 803.265625 C-281.20231524 795.4312351 -290.61722691 787.24640138 -299.359375 778.2734375 C-301.05373787 776.57907463 -302.74160336 775.06091665 -304.6171875 773.578125 C-307.60569557 771.05449597 -309.99219365 768.3349859 -312.51953125 765.36328125 C-314.52387965 763.09660504 -316.635459 760.99949236 -318.8046875 758.890625 C-322.89949573 754.84431704 -326.53543733 750.55588774 -330.12890625 746.0625 C-332.42673723 743.20679155 -334.79788249 740.42645187 -337.1796875 737.640625 C-403.98513216 657.4947742 -438.25660497 551.86513376 -436.18359375 413.64453125 C-427.65504942 324.60460927 -394.70270969 238.28048438 -337.78759766 168.86523438 C-336.54657335 167.34619563 -335.32126707 165.81435032 -334.09765625 164.28125 C-328.67610231 157.52140256 -322.88509933 151.17497669 -316.96484375 144.85595703 C-315.46824935 143.24464277 -313.99281998 141.61660025 -312.5234375 139.98046875 C-305.44467615 132.12737466 -297.93628348 124.86304689 -290.12060547 117.74560547 C-288.65442922 116.40813774 -287.1992385 115.05864623 -285.74609375 113.70703125 C-279.5611167 108.00954008 -273.02636136 102.82717126 -266.36865234 97.70068359 C-264.36721056 96.15487096 -262.37669693 94.59569058 -260.38671875 93.03515625 C-193.22175423 40.65245973 -110.18877288 8.66528669 -25.4296875 1.203125 C-24.45203934 1.11692902 -23.47439117 1.03073303 -22.46711731 0.94192505 C-14.96716057 0.32137523 -7.52408837 0.03121865 0 0 Z " fill="#00A1FF" transform="translate(521.4296875,107.796875)"/>
<path d="M0 0 C1.23935303 0.00499512 2.47870605 0.00999023 3.75561523 0.01513672 C13.1704064 0.19427781 20.76223679 1.34544903 29.3125 5.5 C30.29734375 5.95761719 31.2821875 6.41523438 32.296875 6.88671875 C43.94715159 12.76013167 53.02345279 21.91622216 62.13578796 31.06259155 C63.29808018 32.22185761 64.46080471 33.38069035 65.62391979 34.53913081 C68.79614059 37.70112313 71.96216015 40.86925977 75.127123 44.03851461 C78.55025956 47.46412773 81.97914514 50.88397844 85.40725708 54.30461121 C92.11290466 60.99753658 98.81309194 67.69590219 105.51120885 74.39636324 C110.95649234 79.84343244 116.40354444 85.28872694 121.85184669 90.73277664 C122.62834724 91.508682 123.40484779 92.28458736 124.20487866 93.08400501 C125.78249904 94.66041359 127.36012058 96.236821 128.93774328 97.81322725 C143.71762041 112.58223888 158.49098505 127.35775158 173.26237861 142.13524742 C186.76852606 155.64656599 200.28287321 169.14964883 213.80110516 182.64887576 C227.69389094 196.52228002 241.5811037 210.40124027 255.46232349 224.28621733 C263.25080964 232.07661468 271.04147558 239.86480155 278.8379879 247.64716721 C285.47336894 254.27062969 292.10346319 260.89932939 298.72683366 267.53480314 C302.10418035 270.91803442 305.48386656 274.29883547 308.87015343 277.6731205 C311.97362032 280.7657157 315.07000236 283.86522947 318.16102872 286.97025748 C319.27667473 288.08854678 320.39482454 289.20434535 321.51579972 290.31729262 C336.8949642 305.59399111 346.28412817 321.19214438 346.6875 343.1875 C346.61227748 364.39140217 337.71262925 381.97909027 322.90625 396.9296875 C306.52562135 412.32540493 287.93306296 418.33675142 265.8359375 417.8671875 C249.24549445 417.06853524 235.89723854 408.11670636 224.20843506 397.01489258 C223.52448158 396.36899831 222.8405281 395.72310404 222.13584876 395.05763721 C213.05961146 386.43028588 204.24843883 377.53328546 195.42188644 368.65215683 C192.81740026 366.03282219 190.20973442 363.41665634 187.60238647 360.8001709 C183.10393538 356.28533168 178.6071065 351.7688823 174.11115265 347.2515564 C167.00610164 340.11321762 159.89447915 332.98144458 152.78167725 325.85083008 C151.56593511 324.63197813 150.35019691 323.41312226 149.13446259 322.1942625 C147.29358373 320.3486592 145.45270184 318.50305892 143.61180551 316.65747303 C136.70530739 309.73332405 129.79954099 302.80844575 122.89453125 295.8828125 C122.26463695 295.25104115 121.63474266 294.6192698 120.98576066 293.96835387 C110.73441022 283.68598308 100.49042149 273.39630409 90.24858573 263.10445726 C79.71193756 252.51679696 69.16581217 241.93864251 58.61118102 231.36890888 C52.10967903 224.85743282 45.61599225 218.3383548 39.13208565 211.80935681 C34.70114283 207.34894459 30.26120945 202.89761789 25.81395903 198.45346534 C23.24697099 195.88769997 20.68431212 193.31795546 18.13232803 190.73725891 C15.37163534 187.94570197 12.59201447 185.1735141 9.81011963 182.40307617 C9.00002198 181.57773219 8.18992432 180.75238821 7.35527825 179.90203381 C6.61173459 179.16782868 5.86819092 178.43362356 5.10211563 177.6771698 C4.46222647 177.03483996 3.82233731 176.39251013 3.16305757 175.73071575 C1.40656714 174.30248311 1.40656714 174.30248311 -0.67543781 174.57471228 C-3.19460197 175.73320116 -4.71260914 177.15880857 -6.6701107 179.12743378 C-7.45668851 179.91112194 -8.24326632 180.69481009 -9.05367982 181.50224638 C-9.9118331 182.37254878 -10.76998637 183.24285117 -11.65414429 184.13952637 C-12.5705669 185.05691353 -13.48698951 185.9743007 -14.4311825 186.91948748 C-16.97863525 189.46994089 -19.51662996 192.02963001 -22.0532515 194.59084988 C-24.78962639 197.35042762 -27.5347154 200.10131131 -30.27886963 202.85314941 C-35.03608759 207.62586648 -39.78805015 212.40376451 -44.53678513 217.18492126 C-51.41539337 224.11003356 -58.30464947 231.02447636 -65.19704087 237.93586785 C-76.39549317 249.16530267 -87.5890706 260.39958139 -98.77783203 271.63867188 C-99.44777662 272.31162452 -100.1177212 272.98457716 -100.80796714 273.67792231 C-108.27170813 281.17543672 -115.73399234 288.67439798 -123.19433594 296.17529297 C-124.19840995 297.18481728 -124.19840995 297.18481728 -125.22276828 298.21473601 C-125.8914031 298.88700145 -126.56003791 299.55926689 -127.24893439 300.25190401 C-128.59710647 301.60739125 -129.94528069 302.96287637 -131.29345703 304.31835938 C-131.95955149 304.98806902 -132.62564596 305.65777867 -133.3119251 306.34778255 C-144.4426768 317.53841741 -155.58320591 328.71926193 -166.73149455 339.89242601 C-173.60138067 346.77845332 -180.46288732 353.67262391 -187.31365307 360.57767493 C-192.01764062 365.31767404 -196.73073465 370.04849115 -201.45090632 374.77237362 C-204.16896039 377.49316425 -206.88283991 380.21778801 -209.58561325 382.95376587 C-227.25976099 400.83636106 -244.87512241 417.43443271 -271.4375 417.8125 C-292.26220582 417.71453596 -310.18423026 409.17628342 -324.9375 394.8125 C-340.05792484 379.40878274 -346.96472909 360.8764281 -347.00439453 339.43725586 C-346.63626457 317.18811733 -331.93401675 301.43355546 -317.05570984 286.6007843 C-315.88890909 285.43024003 -314.72253936 284.259266 -313.55655986 283.08790368 C-310.37369579 279.89288179 -307.18468933 276.70405503 -303.99455845 273.51629102 C-300.54645047 270.06859302 -297.10408471 266.61516929 -293.66091919 263.16253662 C-286.92362919 256.4086771 -280.18083223 249.66034202 -273.43581136 242.91420404 C-267.95221476 237.42965537 -262.47020407 231.94352653 -256.98929787 226.45628929 C-241.43633947 210.8857323 -225.87920967 195.31936048 -210.31669869 179.75835107 C-209.47879213 178.92052441 -208.64088556 178.08269776 -207.77758789 177.21948242 C-206.93865334 176.38062963 -206.09971878 175.54177684 -205.23536197 174.67750426 C-191.63279077 161.07574636 -178.04023008 147.46403327 -164.45216622 133.84778402 C-150.48682169 119.85370103 -136.51402212 105.86710004 -122.53343707 91.88824242 C-114.68970667 84.04517541 -106.84907234 76.19907039 -99.0164547 68.34490395 C-92.34985828 61.66008351 -85.67635439 54.98225493 -78.99385866 48.31332675 C-75.58694256 44.912933 -72.18329334 41.50943423 -68.7883358 38.0970974 C-65.67624485 34.9692397 -62.55494702 31.85087862 -59.42627702 28.73960688 C-58.30036649 27.61675818 -57.17777256 26.49057106 -56.05900022 25.36060993 C-40.3970215 9.55250586 -22.53555328 -0.11877648 0 0 Z " fill="#FEFEFF" transform="translate(537.6875,333.5)"/>
</svg>
